PathFileType	4	(X/Y/Z)	C:\Users\Basilio\Documents\Thesis Gigler\squatting_fais\c3dfiles\044\SJ_pre2\markers_experimental.trc
DataRate	CameraRate	NumFrames	NumMarkers	Units	OrigDataRate	OrigDataStartFrame	OrigNumFrames
200.000000	200.000000	4	62	mm	200.000000	1494	1708
Frame#	Time	FHD			LBHD			RBHD			C7			T10			CLAV			LSHO			LUUPA			LMUPA			LDUPA			LLEP			LMEP			LRAD			LUL			LRFIN			RSHO			RUPA1			RMUPA			RDUPA			RLEP			RMEP			RRAD			RUL			RUFIN			LASI			RASI			USACR			LSACR			LTHI1			LTHI2			LTHI3			LTHI4			LLFC			LMFC			LTIB1			LTIB2			LTIB3			LTIB4			LLMAL			LMMAL			LHEE			LMT1			LMT2			LMT5			RTHI			RTHI2			RTHI3			RTHI4			RLFC			RMFC			RTIB1			RTIB2			RTIB3			RTIB4			RLMAL			RMMAL			RHEE			RMT1			RMT2			RMT5			RSACR			*61			
		X1	Y1	Z1	X2	Y2	Z2	X3	Y3	Z3	X4	Y4	Z4	X5	Y5	Z5	X6	Y6	Z6	X7	Y7	Z7	X8	Y8	Z8	X9	Y9	Z9	X10	Y10	Z10	X11	Y11	Z11	X12	Y12	Z12	X13	Y13	Z13	X14	Y14	Z14	X15	Y15	Z15	X16	Y16	Z16	X17	Y17	Z17	X18	Y18	Z18	X19	Y19	Z19	X20	Y20	Z20	X21	Y21	Z21	X22	Y22	Z22	X23	Y23	Z23	X24	Y24	Z24	X25	Y25	Z25	X26	Y26	Z26	X27	Y27	Z27	X28	Y28	Z28	X29	Y29	Z29	X30	Y30	Z30	X31	Y31	Z31	X32	Y32	Z32	X33	Y33	Z33	X34	Y34	Z34	X35	Y35	Z35	X36	Y36	Z36	X37	Y37	Z37	X38	Y38	Z38	X39	Y39	Z39	X40	Y40	Z40	X41	Y41	Z41	X42	Y42	Z42	X43	Y43	Z43	X44	Y44	Z44	X45	Y45	Z45	X46	Y46	Z46	X47	Y47	Z47	X48	Y48	Z48	X49	Y49	Z49	X50	Y50	Z50	X51	Y51	Z51	X52	Y52	Z52	X53	Y53	Z53	X54	Y54	Z54	X55	Y55	Z55	X56	Y56	Z56	X57	Y57	Z57	X58	Y58	Z58	X59	Y59	Z59	X60	Y60	Z60	X61	Y61	Z61	X62	Y62	Z62	

1495	7.47	-409.5317993164064	1756.216430664063	-970.6665039062502	-542.8280029296876	1707.651000976563	-1040.685424804688	-575.8327636718751	1691.129516601563	-878.278015136719	-601.7886352539064	1531.25537109375	-969.487731933594	-631.0537109375001	1222.709838867188	-967.3312988281252	-458.074676513672	1484.61767578125	-961.872985839844	-490.707733154297	1525.059326171875	-1143.158447265625	-537.9840698242189	1343.926879882813	-1290.70556640625	-506.1948242187501	1307.123413085938	-1275.618530273438	-541.3662109375001	1280.287963867188	-1318.68603515625	-537.9902343750001	1221.359252929688	-1328.706298828125	-612.1730346679689	1215.728149414063	-1291.66650390625	-532.3931274414064	980.9634399414065	-1178.94091796875	-481.096160888672	968.9893798828127	-1224.952270507813	-482.6837158203126	994.2236328125002	-1134.238525390625	-515.2008056640626	1506.281494140625	-769.863708496094	-568.8765258789064	1326.741943359375	-635.2181396484376	-534.8851318359376	1290.422607421875	-644.5977172851564	-569.4564208984376	1263.3388671875	-604.2331542968751	-560.8718872070314	1201.751708984375	-592.8374633789064	-636.8101196289064	1189.659790039063	-631.6145019531251	-546.8413085937501	959.6046142578127	-736.0436401367189	-499.1829833984376	948.0307617187502	-682.3262939453126	-485.1229553222657	975.1738891601565	-777.674743652344	-457.9374389648439	1018.424438476563	-1071.702270507813	-454.9319458007814	1000.769775390625	-854.3449707031252	-621.4379272460939	1074.092163085938	-957.4439697265627	-626.6628417968751	1041.577514648438	-984.2131958007815	-531.6715087890626	788.2678833007815	-1170.700073242188	-483.8846130371095	719.5255737304689	-1184.452514648438	-437.441375732422	730.5213012695314	-1177.997436523438	-498.3809204101564	661.0306396484376	-1175.182983398438	-449.1514892578126	511.3661499023439	-1183.197265625	-435.9822387695314	492.3560485839845	-1064.103515625	-439.747039794922	329.1658020019532	-1127.2587890625	-470.5881958007814	292.8754577636719	-1200.250366210938	-441.1107482910157	283.2490844726563	-1165.164916992188	-469.5668945312501	207.6851959228516	-1141.525390625	-529.2272338867189	97.15432739257815	-1203.7353515625	-513.2171020507814	104.4544296264649	-1116.733276367188	-588.4154052734376	47.11027526855469	-1160.199462890625	-377.5965270996094	82.85691833496095	-1134.345336914063	-377.5759582519532	86.03142547607423	-1181.359252929688	-408.8178100585939	59.56234359741212	-1227.623657226563	-525.3932495117189	737.5912475585939	-757.1983032226564	-474.9807434082032	693.6625976562501	-747.7896728515626	-443.0437927246095	701.9132080078126	-751.6609497070314	-481.7822875976564	609.9314575195314	-760.8505859375001	-464.0591125488282	501.2778625488282	-759.7893066406251	-459.840057373047	487.4509582519532	-880.8489379882815	-426.2376403808595	367.9145507812501	-774.8536376953127	-509.1776733398439	308.9830322265626	-731.5206909179689	-469.3087158203126	296.7414855957032	-747.7979736328126	-464.2940979003907	242.8017730712891	-768.3408813476565	-546.1878662109376	95.77678680419923	-744.9119262695314	-520.7142333984376	103.1518859863282	-829.6533203125002	-593.8477783203126	45.81879806518555	-795.3271484375002	-386.2460327148439	85.20922851562501	-794.3184204101565	-383.0612487792969	84.85192108154298	-756.1737060546876	-420.3533325195314	57.51477050781251	-708.0513305664064	-628.7022094726564	1046.99365234375	-927.4085083007815	nan	nan	nan	
1496	7.475000000000001	-409.5145568847657	1756.500122070313	-970.5554199218752	-542.8821411132814	1707.730224609375	-1040.447387695313	-575.7340698242189	1690.7724609375	-877.8680419921877	-602.1727294921876	1531.989501953125	-969.5652465820315	-630.9830322265626	1222.91259765625	-967.1320800781252	-458.3351135253907	1484.650756835938	-961.722595214844	-490.9691467285157	1525.247314453125	-1142.938842773438	-538.2442016601564	1343.925659179688	-1290.417602539063	-506.6999816894532	1306.798217773438	-1275.048095703125	-541.6726684570314	1280.633666992188	-1318.921997070313	-538.2064208984376	1221.488159179688	-1328.439697265625	-612.2993164062501	1215.83642578125	-1291.419311523438	-532.5513305664064	980.9311523437502	-1178.793823242188	-481.2753295898439	968.9071044921877	-1224.877685546875	-482.7722167968751	994.1531982421877	-1134.151123046875	-515.0473022460939	1506.29052734375	-769.6658325195315	-568.6892089843751	1326.727783203125	-635.1143798828126	-534.7839965820314	1290.237426757813	-644.3794555664064	-569.3460693359376	1263.210693359375	-603.9985351562501	-560.7239990234376	1201.711669921875	-592.6938476562501	-636.7239379882814	1189.626098632813	-631.4238281250001	-546.7432250976564	959.565612792969	-735.9306030273439	-499.146209716797	948.0488281250002	-682.2659301757814	-485.1207275390626	975.1592407226565	-777.5653076171877	-457.985809326172	1018.43896484375	-1071.603759765625	-454.8337707519532	1000.852905273438	-854.2241210937502	-621.3973388671876	1074.2216796875	-957.3139648437502	-626.5794677734376	1041.655639648438	-984.0356445312502	-531.7211914062501	788.3243408203127	-1170.606079101563	-484.0596008300782	719.5899047851564	-1184.443603515625	-437.5936889648439	730.6016235351564	-1177.969116210938	-498.5042724609376	661.0967407226564	-1175.078369140625	-449.3548583984376	511.483367919922	-1183.096557617188	-436.1230468750001	492.3818664550782	-1064.076904296875	-439.9127807617189	329.1633605957032	-1127.283203125	-470.8311767578126	292.8582153320313	-1200.216064453125	-441.1676330566407	283.3338928222657	-1165.143432617188	-469.6253662109376	207.7138977050782	-1141.524780273438	-529.3266601562501	97.14954376220706	-1203.764282226563	-513.2959594726564	104.5476226806641	-1116.729370117188	-588.4839477539064	47.09577941894532	-1160.1943359375	-377.6072998046876	82.99082946777345	-1134.47265625	-377.6286315917969	86.13756561279298	-1181.455688476563	-408.906707763672	59.57153701782228	-1227.617797851563	-525.3878784179689	737.5807495117189	-757.1434326171876	-474.9868774414064	693.6733398437501	-747.6481323242189	-443.0111389160157	701.9016113281251	-751.5853271484376	-481.8167114257814	609.9874267578126	-760.8123779296876	-464.1344299316407	501.2268371582032	-759.7221069335939	-459.8147277832032	487.4961242675782	-880.8524169921877	-426.2877807617189	367.9486083984376	-774.7772216796877	-509.2571716308595	309.0213623046876	-731.5263061523439	-469.3260192871095	296.7821044921876	-747.7414550781251	-464.3265991210939	242.871078491211	-768.3718261718752	-546.1890258789064	95.79088592529298	-744.9197998046876	-520.6862792968751	103.1246795654297	-829.660095214844	-593.8063354492189	45.78083419799805	-795.3169555664065	-386.2730102539064	85.27400970458986	-794.316345214844	-383.0516662597657	84.84313201904298	-756.1541748046876	-420.3297729492189	57.51998138427736	-708.0677490234376	-628.6806640625001	1046.99072265625	-927.257507324219	nan	nan	nan	
1497	7.48	-409.4880981445314	1756.531372070313	-970.538757324219	-542.8645019531251	1707.916381835938	-1040.2734375	-575.6678466796876	1691.405883789063	-877.6520996093752	-602.1437377929689	1531.987915039063	-969.2880859375002	-630.8897094726564	1222.919189453125	-966.9312133789065	-458.3858337402345	1484.513427734375	-961.6047973632815	-491.0543823242189	1525.408081054688	-1142.730712890625	-538.5341796875001	1343.950439453125	-1290.17529296875	-506.6472167968751	1307.188598632813	-1275.149169921875	-541.9189453125001	1280.683837890625	-1318.60693359375	-538.4501953125001	1221.484375	-1328.200805664063	-612.5678710937501	1215.851684570313	-1291.102294921875	-532.8282470703126	980.9133911132815	-1178.637084960938	-481.4533691406251	968.952819824219	-1224.747680664063	-482.7745971679689	994.1539306640627	-1134.118408203125	-514.9676513671876	1506.239868164063	-769.4414062500002	-568.4235229492189	1326.562255859375	-634.9089965820314	-534.4801635742189	1289.818481445313	-643.9707031250001	-569.2122192382814	1263.062622070313	-603.8054199218751	-560.6288452148439	1201.47412109375	-592.3921508789064	-636.6830444335939	1189.644897460938	-631.2300415039064	-546.1091918945314	958.9833984375002	-735.9146728515626	-499.1397094726564	947.966735839844	-682.1597290039064	-485.0200500488282	975.0573730468752	-777.4014282226565	-457.9495544433595	1018.527404785156	-1071.508056640625	-454.7744140625001	1000.88720703125	-854.1046142578127	-621.3479614257814	1074.135620117188	-957.1866455078127	-626.5345458984376	1041.682006835938	-983.8298339843752	-531.8434448242189	788.3660278320315	-1170.497192382813	-484.1043701171876	719.6228637695314	-1184.329833984375	-437.8388061523439	730.6438598632814	-1177.772094726563	-498.6054687500001	661.1648559570314	-1175.022583007813	-449.5718078613282	511.5054321289064	-1183.090942382813	-436.1956481933595	492.4117126464845	-1063.966674804688	-440.1805114746095	329.1114501953126	-1127.155639648438	-471.3430175781251	292.0154113769532	-1200.357055664063	-441.2083129882814	283.3823242187501	-1165.16064453125	-469.6383666992189	207.7445220947266	-1141.578857421875	-529.3626098632814	97.15583801269534	-1203.708862304688	-513.3306884765626	104.5698394775391	-1116.709716796875	-588.4794311523439	47.09740066528321	-1160.15283203125	-377.6001281738282	83.13612365722658	-1134.589599609375	-377.6640930175782	86.19019317626955	-1181.43408203125	-408.877655029297	59.3718948364258	-1227.662963867188	-525.4403076171876	737.6314697265626	-756.8663940429689	-474.9634704589845	693.6193237304689	-747.4833984375001	-443.0752868652345	701.7078247070314	-751.1903686523439	-481.8244934082032	609.9436645507814	-760.7627563476564	-464.1897888183595	501.2352905273439	-759.6820068359376	-459.8635253906251	487.5200195312501	-880.8069458007815	-426.3270874023439	368.1973876953126	-774.5806884765627	-509.2518310546876	309.0126953125001	-731.4889526367189	-469.320526123047	296.7643737792969	-747.7266845703126	-464.3180541992189	242.7931671142579	-768.2756347656252	-546.2263793945314	95.76623535156251	-744.9158935546876	-520.7455444335939	103.0978775024414	-829.630065917969	-593.8353271484376	45.77425765991212	-795.2983398437502	-386.2692260742189	85.27184295654298	-794.3192138671877	-383.0584106445313	84.87509918212892	-756.1611328125001	-420.4217834472657	57.44446945190431	-708.1201171875001	-628.6445922851564	1047.0576171875	-927.1050415039065	nan	nan	nan	
1498	7.485	-409.4644470214845	1756.42041015625	-970.5000610351565	-542.7922973632814	1708.054077148438	-1040.12744140625	-575.7881469726564	1691.720703125	-877.3880004882815	-601.9302978515626	1531.664916992188	-968.7734375000002	-630.7930908203126	1223.1728515625	-966.7834472656252	-458.4124755859376	1484.590087890625	-961.4822998046877	-491.2928466796876	1525.291625976563	-1142.560546875	-538.7672119140626	1343.986694335938	-1289.869506835938	-507.0066223144532	1307.00830078125	-1274.7861328125	-542.0972290039064	1280.775268554688	-1318.354370117188	-538.5804443359376	1221.540405273438	-1327.994750976563	-612.7300415039064	1215.6708984375	-1290.80322265625	-532.8388671875001	980.825378417969	-1178.525146484375	-481.4768981933595	968.9370727539065	-1224.706909179688	-482.7882690429689	994.1418457031252	-1134.054931640625	-514.7755737304689	1506.180908203125	-769.2014160156252	-568.2390136718751	1326.41943359375	-634.6545410156251	-534.2719726562501	1289.883178710938	-643.9325561523439	-569.1090087890626	1263.1005859375	-603.6721191406251	-560.4871215820314	1201.354248046875	-592.2202758789064	-636.5908813476564	1189.598754882813	-631.0440673828126	-546.1628417968751	959.012145996094	-735.8642578125001	-499.0911560058595	947.9555664062502	-682.1079711914064	-485.0210876464845	974.9990234375002	-777.276306152344	-457.9056396484376	1018.606384277344	-1071.41357421875	-454.6785888671876	1000.921813964844	-854.0305175781252	-621.3157348632814	1074.234130859375	-957.050476074219	-626.4034423828126	1041.775512695313	-983.7009887695315	-531.9356689453126	788.4877929687502	-1170.410034179688	-484.2859497070314	719.6878662109376	-1184.230712890625	-437.9929809570314	730.7031250000001	-1177.71923828125	-498.679168701172	661.1779785156251	-1174.943237304688	-449.6980285644532	511.5518798828126	-1183.025390625	-436.2788391113282	492.4542236328126	-1063.8857421875	-440.3824157714845	329.0586853027344	-1127.13623046875	-471.4802246093751	292.1021423339844	-1200.39599609375	-441.2769165039064	283.5258483886719	-1165.146240234375	-469.6368103027345	207.7933197021485	-1141.568237304688	-529.3900756835939	97.18704223632815	-1203.74169921875	-513.3576660156251	104.629623413086	-1116.770751953125	-588.4655151367189	47.06499862670899	-1160.218872070313	-377.6321716308594	83.17514801025392	-1134.586059570313	-377.7030639648438	86.21945190429689	-1181.524291992188	-408.9663696289064	59.80404281616212	-1227.719848632813	-525.4284057617189	737.6754150390626	-756.8319091796876	-474.9829711914064	693.6424560546876	-747.3421020507814	-443.0965576171876	701.6174926757814	-751.0784912109376	-481.8067626953126	609.9910278320314	-760.7528686523439	-464.1849365234376	501.2175903320314	-759.6321411132814	-459.8298339843751	487.5541992187501	-880.8049926757815	-426.3471984863282	367.9749145507813	-774.742614746094	-509.2335510253907	309.0231323242188	-731.4963378906251	-469.3556213378907	296.7622985839844	-747.7523193359376	-464.2148742675782	242.6688385009766	-768.3786621093752	-546.2077636718751	95.77159118652345	-744.9107055664064	-520.6987304687501	103.1418914794922	-829.627868652344	-594.7049560546876	46.33077239990235	-795.0520019531252	-386.262908935547	85.28118896484376	-794.3139648437502	-383.0611267089844	84.88778686523439	-756.1806030273439	-420.3488769531251	57.49909973144533	-708.0962524414064	-628.6243286132814	1047.04833984375	-926.9541625976565	nan	nan	nan	
